<svg width="61" height="61" viewBox="0 0 61 61" fill="none" xmlns="http://www.w3.org/2000/svg">
<g clip-path="url(#clip0_238_22)">
<path d="M30.4664 45.4706C38.7217 45.4706 45.4139 38.7709 45.4139 30.5065C45.4139 22.2421 38.7217 15.5425 30.4664 15.5425C22.211 15.5425 15.5188 22.2421 15.5188 30.5065C15.5188 38.7709 22.211 45.4706 30.4664 45.4706Z" fill="white"/>
<path d="M30.3926 0.00683594C29.8784 4.97169 29.641 10.1538 29.008 15.0079C28.6369 9.29873 26.1646 9.91517 26.6523 8.17179C28.0047 3.69948 23.9513 5.54431 24.7805 0.686408C22.6497 5.73596 26.3501 4.76411 25.1334 7.03469C22.4604 11.2427 27.3241 11.05 26.0407 15.5832L18.94 2.20031L23.2112 16.6664C20.5494 11.5537 18.5289 13.1335 18.2679 11.3375C17.6922 6.70046 14.7362 10.0321 13.5262 5.25502C13.6242 10.7358 16.6119 8.34752 16.4196 10.917C15.6799 15.8565 20.0618 13.6917 20.7143 18.3856C20.6455 18.4411 20.5772 18.4971 20.5093 18.5538L8.80129 9.01285L18.5569 20.4983C18.541 20.5171 18.5256 20.5366 18.5098 20.5555C14.1465 16.8395 12.8694 19.0486 11.9568 17.4839C9.68786 13.4004 8.19576 17.5973 5.2862 13.6218C7.42797 18.6667 9.30184 15.3322 10.085 17.7867C11.2412 22.6173 14.4647 19.0342 16.8228 23.0349C16.7715 23.1286 16.7211 23.2227 16.6716 23.3175L2.30879 18.8801L15.6198 25.8541C15.6146 25.8707 15.6115 25.888 15.6063 25.9046C10.2019 24.1347 9.84605 26.6534 8.41483 25.5513C4.77519 22.6259 4.97199 27.0751 0.779754 24.4916C4.66374 28.3555 5.14514 24.5594 6.79507 26.5371C9.68268 30.5706 11.318 26.0469 15.0014 28.8449C14.9898 28.9545 14.9805 29.0644 14.9712 29.1746L0.00683594 30.4867L14.9779 31.9164C14.9805 31.9457 14.9852 31.9747 14.988 32.0039C9.27578 32.3411 9.87859 34.8237 8.13927 34.3252C3.67973 32.9457 5.49975 37.0101 0.652054 36.152C5.6837 38.3141 4.7323 34.608 6.99334 35.8391C11.1896 38.5446 11.0209 33.6498 15.5694 34.988C15.5943 35.071 15.6204 35.1544 15.6467 35.2369L2.13068 42.0125L16.3524 37.8947C11.6721 40.4292 13.1165 42.3651 11.3654 42.6079C6.72956 43.1524 10.0394 46.1359 5.25932 47.3145C10.7346 47.254 8.3666 44.2481 10.9319 44.4583C15.8234 45.2268 13.7624 40.8954 18.3183 40.2227C18.3889 40.3111 18.4608 40.3983 18.5333 40.4851L8.9794 52.0715L20.4656 42.4229C20.4862 42.4402 20.5054 42.4595 20.5261 42.4767C16.8087 46.8371 19.0122 48.1194 17.4479 49.0302C13.365 51.2947 17.556 52.7989 13.5799 55.7048C18.623 53.5694 15.2938 51.6873 17.747 50.9075C22.5754 49.758 19.0012 46.5197 23.0062 44.1656L18.8257 58.6922C20.0084 57.342 24.9192 45.1059 25.9567 45.407C24.2145 50.8102 26.7226 51.1544 25.6274 52.5896C22.7169 56.2426 27.1628 56.0313 24.5957 60.2364C28.4427 56.3357 24.6486 55.8692 26.6187 54.2111C30.6352 51.3097 26.1216 49.6826 28.8904 45.9923L30.5841 60.9934C31.1504 56.0498 31.3297 50.7688 32.0661 45.9923C32.476 51.6187 34.9208 51.0068 34.442 52.7443C33.1071 57.2219 37.1509 55.3619 36.3407 60.223C38.4518 55.1651 34.7564 56.15 35.9643 53.8747C38.6072 49.6779 33.8096 49.8633 35.0066 45.3969L42.1779 58.6822L38.105 45.0806C40.4793 49.2864 42.3196 47.9985 42.5375 49.6997C43.0343 54.3459 46.0462 51.0659 47.175 55.8629C47.17 50.3813 44.1431 52.7163 44.379 50.1505C45.2012 45.2322 40.7995 47.3065 40.2154 42.6315L51.9637 52.1825C48.8301 48.2653 45.4175 44.3884 42.4131 40.4649C46.7474 44.2401 48.0487 42.0384 48.946 43.6138C51.1727 47.7206 52.7112 43.5379 55.5796 47.5432C53.49 42.4765 51.5789 45.7937 50.8211 43.3312C49.7109 38.4716 46.4318 42.0626 44.1135 37.9687L58.6074 42.3186C54.2222 39.89 49.5817 37.6064 45.32 35.1225C50.8201 36.9306 51.1586 34.3798 52.6022 35.4825C56.2531 38.3939 56.0384 33.9413 60.2406 36.5086C56.3417 32.6598 55.8761 36.4579 54.2186 34.4867C51.2963 30.4379 49.6745 35.0551 45.9282 32.1553L60.9934 30.5136L45.9551 29.1376C45.9548 29.1343 45.9554 29.1308 45.9551 29.1275C51.6926 28.767 51.0729 26.2822 52.8173 26.7726C57.2838 28.1294 55.4424 24.0721 60.2944 24.9054C59.0338 24.3713 58.1489 24.2016 57.4951 24.2292C55.5336 24.312 55.6536 26.1666 53.9531 25.2519C49.7457 22.5695 49.9405 27.4535 45.3939 26.1468L58.7855 19.055C53.9559 20.3611 48.9625 22.1691 44.2211 23.2469C49.42 20.6092 47.8387 18.5593 49.6416 18.3115C54.278 17.7728 50.9762 14.7878 55.7577 13.6151C50.2824 13.6689 52.6435 16.6779 50.0785 16.4646C45.1375 15.6821 47.2867 20.1101 42.5442 20.7069L52.041 8.85473L40.4439 18.5706C40.4402 18.5676 40.4374 18.5635 40.4338 18.5605C44.2294 14.098 41.9703 12.8212 43.5389 11.8926C47.6053 9.59856 43.4049 8.12585 47.3598 5.1911C42.3324 7.36316 45.6738 9.22112 43.2264 10.0187C38.3701 11.2122 42.064 14.4631 37.9302 16.8515L42.0905 2.24068C41.0325 3.55917 35.8863 15.8982 35.0671 15.6336C36.823 10.1658 34.2899 9.83228 35.3829 8.3871C38.2775 4.72139 33.8322 4.95319 36.381 0.736871C32.5509 4.65431 36.3477 5.1056 34.3849 6.77228C30.3695 9.69958 34.9262 11.303 32.1232 15.0281L30.3926 0.00683594ZM30.4665 15.5495C38.7145 15.5495 45.4073 22.2497 45.4073 30.5068C45.4073 38.7639 38.7145 45.4641 30.4665 45.4641C22.2185 45.4642 15.5223 38.7639 15.5223 30.5068C15.5223 22.2497 22.2185 15.5495 30.4665 15.5495ZM28.1444 18.0761L29.9288 19.6539V21.4234H26.9716L25.419 19.6942L25.4056 24.2999L26.9817 22.4933H29.9154L29.9288 31.2066H28.2015V27.4488C28.2015 27.0584 28.7839 26.7927 29.1694 26.7927H29.5861V26.352H25.1939V26.7995H25.708C26.0926 26.7995 26.5885 27.1217 26.5885 27.5631V35.6204C26.5885 35.9826 26.2644 36.3707 25.7349 36.3707H25.1871V36.8316H29.5928V36.3707H29.0853C28.6095 36.3707 28.2049 36.0307 28.2049 35.6675L28.2015 31.8424L29.9288 31.8458V31.9535L30.4161 35.1629L30.9975 31.9669V31.8492L32.9365 31.8559V35.6877C32.9365 36.0118 32.5468 36.3707 32.0728 36.3707H31.4276V36.808H35.8332V36.3841H35.3191C34.7321 36.3841 34.3277 36.0437 34.3277 35.5969L34.3345 27.6506C34.3345 27.3462 34.7394 26.8193 35.4737 26.7961H35.8534V26.3655L31.4276 26.3722V26.7961H31.804C32.3891 26.7914 32.9285 27.3043 32.9432 27.6641V31.2066H30.9975V22.4899H34.0118L35.5174 24.4412V19.6337L34.0959 21.4403H31.0042V19.6909L32.8289 18.0761H28.1444ZM42.2921 26.1367C42.2273 26.5899 42.103 26.8627 41.9292 26.9912C36.6273 24.159 34.2403 29.9838 39.2005 32.1856C46.3016 35.0658 37.2525 39.3052 36.8817 33.3631H36.4717V37.0233H36.9355C36.8996 36.6608 37.1914 36.3025 37.2043 36.2832C43.0726 38.6951 45.6513 33.4512 40.4909 30.8668C33.652 27.8484 41.8989 23.9447 42.2921 29.8979H42.7223V26.1367H42.2921ZM18.9299 26.352V26.7995H19.444C19.8286 26.7995 20.3245 27.1217 20.3245 27.5631V35.6204C20.3245 35.9826 20.0004 36.3707 19.4709 36.3707H18.9232V36.8316H23.3288V36.3707H22.8213C22.3455 36.3707 21.9409 36.0307 21.9409 35.6675L21.9375 27.4488C21.9375 27.0584 22.5199 26.7927 22.9054 26.7927H23.3221V26.352H18.9299ZM30.3523 38.4935C30.2915 38.4933 30.2292 38.495 30.1674 38.4969C29.8707 38.5058 29.5634 38.5386 29.2366 38.6079C29.102 38.9563 29.1743 39.1508 29.2366 39.3514C29.5482 39.4492 29.8156 39.6032 29.9759 39.9031L30.4329 43.1395L30.9067 39.8459C31.0401 39.6303 31.1009 39.3929 31.5721 39.274C31.691 38.8139 31.5903 38.7935 31.5721 38.6079C31.1777 38.5441 30.7777 38.4947 30.3523 38.4935ZM25.745 40.3472C25.2872 40.9171 24.8597 41.5328 24.589 42.3825C24.825 42.672 25.0258 42.7042 25.2308 42.7492C25.4699 42.5264 25.738 42.367 26.0777 42.3758L29.1122 43.5802L26.4877 41.5381C26.3664 41.3154 26.1933 41.1457 26.323 40.6769C25.9823 40.3458 25.9152 40.4232 25.745 40.3472ZM35.1578 40.3943C34.7883 40.4466 34.6538 40.6019 34.5092 40.7542C34.5759 41.0743 34.5749 41.3863 34.3916 41.6727L31.7906 43.6508L34.8957 42.4599C35.1487 42.4713 35.382 42.4089 35.7156 42.7627C36.1749 42.6422 36.144 42.5428 36.297 42.4363C36.0468 41.7492 35.7439 41.066 35.1578 40.3943Z" fill="black" stroke="black" stroke-width="0.0612275"/>
</g>
<defs>
<clipPath id="clip0_238_22">
<rect width="61" height="61" fill="white"/>
</clipPath>
</defs>
</svg>
